<svg id="Layer_1" data-name="Layer 1" xmlns="http://www.w3.org/2000/svg" viewBox="0 0 1200 1200"><defs><style>.cls-1{fill:#164e63;}.cls-2,.cls-3{fill:#cffafe;}.cls-3{font-size:90.46px;font-family:PTMono-Regular, PT Mono;}</style></defs><rect class="cls-1" width="1200" height="1200"/><rect class="cls-1" width="1200" height="1200"/><path class="cls-2" d="M601.46,110.69c-.67,0-1.35,0-2,0s-1.34.12-2,.22-1.32.24-2,.4-1.3.36-1.93.58-1.27.47-1.88.75-1.21.59-1.8.92c-74.45,41-282.91,126.39-372.25,161.62-26.15,10.17-31.24,16.7-32,24.33-5.45,98.06-12.35,341.75,48.3,486.65,79.17,188.49,296,278.92,360.63,302.17a24.18,24.18,0,0,0,2.55.76,25.44,25.44,0,0,0,2.61.46,23.48,23.48,0,0,0,5.3,0,26.12,26.12,0,0,0,2.62-.46,24.73,24.73,0,0,0,2.54-.76C674.1,1065.11,892,974.68,969,786.19c60.65-145.27,54.11-388.59,48.3-486.65,0-7.63-5.81-14.16-32-24.33C896.72,238.89,689,154.63,614.17,113.59c-.63-.36-1.29-.69-2-1s-1.36-.57-2.05-.8-1.41-.43-2.13-.6-1.44-.29-2.17-.38-1.46-.15-2.19-.18S602.2,110.64,601.46,110.69Zm0,1028.51c-1.4,0-2.8,0-4.2-.13s-2.79-.2-4.18-.36-2.78-.37-4.15-.61-2.76-.53-4.12-.85-2.71-.69-4.06-1.09-2.67-.84-4-1.32c-68.28-26.15-302.16-122.39-388.6-329.4-64.65-154.35-58.83-407.12-51.57-508.81,2.54-43.94,43.22-59.56,62.83-67.55C284.41,195.67,494.33,109.6,567,70a72.63,72.63,0,0,1,70.82,0c72.64,39.59,281.46,125.66,365.72,158.71,19.61,7.63,60.65,23.61,63.19,67.55,5.81,101.69,12.71,354.46-51.93,508.45-86.44,207.73-318.51,304-387.51,330.12q-2.07.73-4.17,1.35c-1.4.41-2.82.77-4.24,1.1s-2.85.61-4.29.86-2.89.44-4.34.6-2.91.28-4.37.35S602.92,1139.21,601.46,1139.2Z"/><text class="cls-3" transform="translate(464.31 731.59)">Trunk</text><text class="cls-3" transform="translate(355.75 848.94)">Player</text><text class="cls-3" transform="translate(735.69 848.94)">NG</text><path class="cls-2" d="M685,423.35c0,6.47-.63,17-1.41,23.46l-.73,6.06c-.77,6.43-1.4,17-1.4,23.46V587.76a11.81,11.81,0,0,1-11.77,11.78H522.12a11.81,11.81,0,0,1-11.77-11.78V313.88a11.8,11.8,0,0,1,11.77-11.77H673.2A11.8,11.8,0,0,1,685,313.88Z"/><path class="cls-2" d="M683.79,361v48.29a38.79,38.79,0,0,0,0-48.29Z"/><path class="cls-2" d="M529.18,501.25a3.53,3.53,0,1,1-3.53-3.54A3.54,3.54,0,0,1,529.18,501.25Z"/><path class="cls-2" d="M543.31,501.25a3.53,3.53,0,1,1-3.53-3.54A3.54,3.54,0,0,1,543.31,501.25Z"/><path class="cls-2" d="M557.43,501.25a3.53,3.53,0,1,1-3.53-3.54A3.54,3.54,0,0,1,557.43,501.25Z"/><path class="cls-2" d="M571.56,501.25a3.53,3.53,0,1,1-3.53-3.54A3.54,3.54,0,0,1,571.56,501.25Z"/><circle class="cls-2" cx="582.16" cy="501.25" r="3.53"/><path class="cls-2" d="M599.81,501.25a3.53,3.53,0,1,1-3.53-3.54A3.54,3.54,0,0,1,599.81,501.25Z"/><path class="cls-2" d="M613.94,501.25a3.53,3.53,0,1,1-3.53-3.54A3.54,3.54,0,0,1,613.94,501.25Z"/><circle class="cls-2" cx="624.53" cy="501.25" r="3.53"/><circle class="cls-2" cx="638.66" cy="501.25" r="3.53"/><path class="cls-2" d="M656.32,501.25a3.53,3.53,0,1,1-3.53-3.54A3.54,3.54,0,0,1,656.32,501.25Z"/><path class="cls-2" d="M670.44,501.25a3.53,3.53,0,1,1-3.53-3.54A3.54,3.54,0,0,1,670.44,501.25Z"/><path class="cls-2" d="M529.18,515.38a3.53,3.53,0,1,1-3.53-3.54A3.53,3.53,0,0,1,529.18,515.38Z"/><path class="cls-2" d="M543.31,515.38a3.53,3.53,0,1,1-3.53-3.54A3.53,3.53,0,0,1,543.31,515.38Z"/><path class="cls-2" d="M557.43,515.38a3.53,3.53,0,1,1-3.53-3.54A3.53,3.53,0,0,1,557.43,515.38Z"/><path class="cls-2" d="M571.56,515.38a3.53,3.53,0,1,1-3.53-3.54A3.53,3.53,0,0,1,571.56,515.38Z"/><circle class="cls-2" cx="582.16" cy="515.38" r="3.53"/><path class="cls-2" d="M599.81,515.38a3.53,3.53,0,1,1-3.53-3.54A3.53,3.53,0,0,1,599.81,515.38Z"/><path class="cls-2" d="M613.94,515.38a3.53,3.53,0,1,1-3.53-3.54A3.53,3.53,0,0,1,613.94,515.38Z"/><circle class="cls-2" cx="624.53" cy="515.38" r="3.53"/><circle class="cls-2" cx="638.66" cy="515.38" r="3.53"/><path class="cls-2" d="M656.32,515.38a3.53,3.53,0,1,1-3.53-3.54A3.53,3.53,0,0,1,656.32,515.38Z"/><path class="cls-2" d="M670.44,515.38a3.53,3.53,0,1,1-3.53-3.54A3.53,3.53,0,0,1,670.44,515.38Z"/><path class="cls-2" d="M529.18,529.5a3.53,3.53,0,1,1-3.53-3.53A3.53,3.53,0,0,1,529.18,529.5Z"/><path class="cls-2" d="M543.31,529.5a3.53,3.53,0,1,1-3.53-3.53A3.53,3.53,0,0,1,543.31,529.5Z"/><path class="cls-2" d="M557.43,529.5A3.53,3.53,0,1,1,553.9,526,3.53,3.53,0,0,1,557.43,529.5Z"/><path class="cls-2" d="M571.56,529.5A3.53,3.53,0,1,1,568,526,3.53,3.53,0,0,1,571.56,529.5Z"/><circle class="cls-2" cx="582.16" cy="529.5" r="3.53"/><path class="cls-2" d="M599.81,529.5a3.53,3.53,0,1,1-3.53-3.53A3.53,3.53,0,0,1,599.81,529.5Z"/><path class="cls-2" d="M613.94,529.5a3.53,3.53,0,1,1-3.53-3.53A3.53,3.53,0,0,1,613.94,529.5Z"/><circle class="cls-2" cx="624.53" cy="529.5" r="3.53"/><circle class="cls-2" cx="638.66" cy="529.5" r="3.53"/><path class="cls-2" d="M656.32,529.5a3.53,3.53,0,1,1-3.53-3.53A3.53,3.53,0,0,1,656.32,529.5Z"/><path class="cls-2" d="M670.44,529.5a3.53,3.53,0,1,1-3.53-3.53A3.53,3.53,0,0,1,670.44,529.5Z"/><path class="cls-2" d="M529.18,543.62a3.53,3.53,0,1,1-3.53-3.53A3.53,3.53,0,0,1,529.18,543.62Z"/><path class="cls-2" d="M543.31,543.62a3.53,3.53,0,1,1-3.53-3.53A3.53,3.53,0,0,1,543.31,543.62Z"/><path class="cls-2" d="M557.43,543.62a3.53,3.53,0,1,1-3.53-3.53A3.53,3.53,0,0,1,557.43,543.62Z"/><path class="cls-2" d="M571.56,543.62a3.53,3.53,0,1,1-3.53-3.53A3.53,3.53,0,0,1,571.56,543.62Z"/><path class="cls-2" d="M585.69,543.62a3.53,3.53,0,1,1-3.53-3.53A3.53,3.53,0,0,1,585.69,543.62Z"/><path class="cls-2" d="M599.81,543.62a3.53,3.53,0,1,1-3.53-3.53A3.53,3.53,0,0,1,599.81,543.62Z"/><path class="cls-2" d="M613.94,543.62a3.53,3.53,0,1,1-3.53-3.53A3.53,3.53,0,0,1,613.94,543.62Z"/><path class="cls-2" d="M628.07,543.62a3.54,3.54,0,1,1-3.54-3.53A3.54,3.54,0,0,1,628.07,543.62Z"/><path class="cls-2" d="M642.2,543.62a3.54,3.54,0,1,1-3.54-3.53A3.54,3.54,0,0,1,642.2,543.62Z"/><path class="cls-2" d="M656.32,543.62a3.53,3.53,0,1,1-3.53-3.53A3.53,3.53,0,0,1,656.32,543.62Z"/><path class="cls-2" d="M670.44,543.62a3.53,3.53,0,1,1-3.53-3.53A3.53,3.53,0,0,1,670.44,543.62Z"/><path class="cls-2" d="M529.18,557.75a3.53,3.53,0,1,1-3.53-3.53A3.53,3.53,0,0,1,529.18,557.75Z"/><path class="cls-2" d="M543.31,557.75a3.53,3.53,0,1,1-3.53-3.53A3.53,3.53,0,0,1,543.31,557.75Z"/><path class="cls-2" d="M557.43,557.75a3.53,3.53,0,1,1-3.53-3.53A3.53,3.53,0,0,1,557.43,557.75Z"/><path class="cls-2" d="M571.56,557.75a3.53,3.53,0,1,1-3.53-3.53A3.53,3.53,0,0,1,571.56,557.75Z"/><circle class="cls-2" cx="582.16" cy="557.75" r="3.53"/><path class="cls-2" d="M599.81,557.75a3.53,3.53,0,1,1-3.53-3.53A3.53,3.53,0,0,1,599.81,557.75Z"/><path class="cls-2" d="M613.94,557.75a3.53,3.53,0,1,1-3.53-3.53A3.53,3.53,0,0,1,613.94,557.75Z"/><circle class="cls-2" cx="624.53" cy="557.75" r="3.53"/><circle class="cls-2" cx="638.66" cy="557.75" r="3.53"/><path class="cls-2" d="M656.32,557.75a3.53,3.53,0,1,1-3.53-3.53A3.53,3.53,0,0,1,656.32,557.75Z"/><path class="cls-2" d="M670.44,557.75a3.53,3.53,0,1,1-3.53-3.53A3.53,3.53,0,0,1,670.44,557.75Z"/><path class="cls-2" d="M529.18,571.88a3.53,3.53,0,1,1-3.53-3.53A3.53,3.53,0,0,1,529.18,571.88Z"/><path class="cls-2" d="M543.31,571.88a3.53,3.53,0,1,1-3.53-3.53A3.53,3.53,0,0,1,543.31,571.88Z"/><path class="cls-2" d="M557.43,571.88a3.53,3.53,0,1,1-3.53-3.53A3.53,3.53,0,0,1,557.43,571.88Z"/><path class="cls-2" d="M571.56,571.88a3.53,3.53,0,1,1-3.53-3.53A3.53,3.53,0,0,1,571.56,571.88Z"/><path class="cls-2" d="M585.69,571.88a3.53,3.53,0,1,1-3.53-3.53A3.53,3.53,0,0,1,585.69,571.88Z"/><path class="cls-2" d="M599.81,571.88a3.53,3.53,0,1,1-3.53-3.53A3.53,3.53,0,0,1,599.81,571.88Z"/><path class="cls-2" d="M613.94,571.88a3.53,3.53,0,1,1-3.53-3.53A3.53,3.53,0,0,1,613.94,571.88Z"/><path class="cls-2" d="M628.07,571.88a3.54,3.54,0,1,1-3.54-3.53A3.54,3.54,0,0,1,628.07,571.88Z"/><path class="cls-2" d="M642.2,571.88a3.54,3.54,0,1,1-3.54-3.54A3.54,3.54,0,0,1,642.2,571.88Z"/><path class="cls-2" d="M656.32,571.88a3.53,3.53,0,1,1-3.53-3.53A3.53,3.53,0,0,1,656.32,571.88Z"/><path class="cls-2" d="M670.44,571.88a3.53,3.53,0,1,1-3.53-3.53A3.53,3.53,0,0,1,670.44,571.88Z"/><path class="cls-2" d="M529.18,586a3.53,3.53,0,1,1-3.53-3.53A3.53,3.53,0,0,1,529.18,586Z"/><path class="cls-2" d="M543.31,586a3.53,3.53,0,1,1-3.53-3.53A3.53,3.53,0,0,1,543.31,586Z"/><path class="cls-2" d="M557.43,586a3.53,3.53,0,1,1-3.53-3.53A3.53,3.53,0,0,1,557.43,586Z"/><path class="cls-2" d="M571.56,586a3.53,3.53,0,1,1-3.53-3.53A3.53,3.53,0,0,1,571.56,586Z"/><circle class="cls-2" cx="582.16" cy="586" r="3.53"/><path class="cls-2" d="M599.81,586a3.53,3.53,0,1,1-3.53-3.53A3.53,3.53,0,0,1,599.81,586Z"/><path class="cls-2" d="M613.94,586a3.53,3.53,0,1,1-3.53-3.53A3.53,3.53,0,0,1,613.94,586Z"/><circle class="cls-2" cx="624.53" cy="586" r="3.53"/><circle class="cls-2" cx="638.66" cy="586" r="3.53"/><path class="cls-2" d="M656.32,586a3.53,3.53,0,1,1-3.53-3.53A3.53,3.53,0,0,1,656.32,586Z"/><path class="cls-2" d="M670.44,586a3.53,3.53,0,1,1-3.53-3.53A3.53,3.53,0,0,1,670.44,586Z"/><path class="cls-2" d="M529.18,487.12a3.53,3.53,0,1,1-3.53-3.53A3.53,3.53,0,0,1,529.18,487.12Z"/><path class="cls-2" d="M543.31,487.12a3.53,3.53,0,1,1-3.53-3.53A3.53,3.53,0,0,1,543.31,487.12Z"/><path class="cls-2" d="M557.43,487.12a3.53,3.53,0,1,1-3.53-3.53A3.53,3.53,0,0,1,557.43,487.12Z"/><path class="cls-2" d="M571.56,487.12a3.53,3.53,0,1,1-3.53-3.53A3.53,3.53,0,0,1,571.56,487.12Z"/><path class="cls-2" d="M585.69,487.12a3.53,3.53,0,1,1-3.53-3.53A3.53,3.53,0,0,1,585.69,487.12Z"/><path class="cls-2" d="M599.81,487.12a3.53,3.53,0,1,1-3.53-3.53A3.53,3.53,0,0,1,599.81,487.12Z"/><path class="cls-2" d="M613.94,487.12a3.53,3.53,0,1,1-3.53-3.53A3.53,3.53,0,0,1,613.94,487.12Z"/><path class="cls-2" d="M628.07,487.12a3.54,3.54,0,1,1-3.54-3.53A3.54,3.54,0,0,1,628.07,487.12Z"/><circle class="cls-2" cx="638.66" cy="487.12" r="3.53"/><path class="cls-2" d="M656.32,487.12a3.53,3.53,0,1,1-3.53-3.53A3.53,3.53,0,0,1,656.32,487.12Z"/><path class="cls-2" d="M670.44,487.12a3.53,3.53,0,1,1-3.53-3.53A3.53,3.53,0,0,1,670.44,487.12Z"/><path class="cls-2" d="M529.18,473a3.53,3.53,0,1,1-3.53-3.53A3.53,3.53,0,0,1,529.18,473Z"/><path class="cls-2" d="M543.31,473a3.53,3.53,0,1,1-3.53-3.53A3.53,3.53,0,0,1,543.31,473Z"/><path class="cls-2" d="M557.43,473a3.53,3.53,0,1,1-3.53-3.53A3.53,3.53,0,0,1,557.43,473Z"/><path class="cls-2" d="M571.56,473a3.53,3.53,0,1,1-3.53-3.53A3.53,3.53,0,0,1,571.56,473Z"/><path class="cls-2" d="M585.69,473a3.53,3.53,0,1,1-3.53-3.53A3.53,3.53,0,0,1,585.69,473Z"/><path class="cls-2" d="M599.81,473a3.53,3.53,0,1,1-3.53-3.53A3.53,3.53,0,0,1,599.81,473Z"/><path class="cls-2" d="M613.94,473a3.53,3.53,0,1,1-3.53-3.53A3.53,3.53,0,0,1,613.94,473Z"/><path class="cls-2" d="M628.07,473a3.54,3.54,0,1,1-3.54-3.53A3.54,3.54,0,0,1,628.07,473Z"/><path class="cls-2" d="M642.2,473a3.54,3.54,0,1,1-3.54-3.54A3.54,3.54,0,0,1,642.2,473Z"/><path class="cls-2" d="M656.32,473a3.53,3.53,0,1,1-3.53-3.53A3.53,3.53,0,0,1,656.32,473Z"/><path class="cls-2" d="M670.44,473a3.53,3.53,0,1,1-3.53-3.53A3.53,3.53,0,0,1,670.44,473Z"/><path class="cls-2" d="M665.4,335.06H562.7a26.53,26.53,0,0,0-26.45,26.45v60a26.52,26.52,0,0,0,26.45,26.44H665.4A6.63,6.63,0,0,0,672,441.3V341.68A6.64,6.64,0,0,0,665.4,335.06Z"/><path class="cls-2" d="M655,366.4a3.25,3.25,0,0,1-3.24,3.25H562.25A3.24,3.24,0,0,1,559,366.4V366a3.24,3.24,0,0,1,3.24-3.25H651.8A3.24,3.24,0,0,1,655,366Z"/><path class="cls-2" d="M563.8,376.56a2.4,2.4,0,1,1-2.4-2.4A2.39,2.39,0,0,1,563.8,376.56Z"/><circle class="cls-2" cx="570.53" cy="376.56" r="1.46"/><circle class="cls-2" cx="579.65" cy="376.56" r="1.46"/><circle class="cls-2" cx="588.78" cy="376.56" r="1.46"/><path class="cls-2" d="M599.36,376.56a1.46,1.46,0,1,1-1.46-1.46A1.46,1.46,0,0,1,599.36,376.56Z"/><circle class="cls-2" cx="616.15" cy="376.56" r="1.46"/><circle class="cls-2" cx="625.28" cy="376.56" r="1.46"/><circle class="cls-2" cx="634.4" cy="376.56" r="1.46"/><circle class="cls-2" cx="643.52" cy="376.56" r="1.46"/><path class="cls-2" d="M609.42,376.56a2.4,2.4,0,1,1-2.39-2.4A2.39,2.39,0,0,1,609.42,376.56Z"/><path class="cls-2" d="M655,376.56a2.4,2.4,0,1,1-2.4-2.4A2.39,2.39,0,0,1,655,376.56Z"/><rect class="cls-2" x="577.67" y="359.53" width="3.97" height="11.9"/><polygon class="cls-2" points="539.62 242.91 539.62 232.45 524.62 232.45 524.62 242.91 529.03 242.91 529.03 258.14 527.63 258.14 527.63 261.58 526.04 261.58 526.04 265.02 524.62 265.02 524.62 303.28 539.62 303.28 539.62 265.02 538.2 265.02 538.2 261.58 536.61 261.58 536.61 258.14 535.14 258.14 535.14 242.91 539.62 242.91"/><path class="cls-1" d="M631.9,556.08h-.3a5.4,5.4,0,0,1-5.05-4.7l-17.29-133.8-18.9,89.31a5.38,5.38,0,0,1-10.39.53l-18.86-58.63L547.7,478.74a5.4,5.4,0,0,1-4.92,3.18h-28.6a5.39,5.39,0,0,1,0-10.77h25.11L557,431.56a5.47,5.47,0,0,1,5.21-3.18,5.39,5.39,0,0,1,4.83,3.73l17,52.72,21.26-100.47a5.31,5.31,0,0,1,5.48-4.27,5.39,5.39,0,0,1,5.13,4.7L633.5,521.12l11.27-46.56a5.38,5.38,0,0,1,5.23-4.13h29.41a5.39,5.39,0,1,1,0,10.78H654.25L637.13,552A5.39,5.39,0,0,1,631.9,556.08Z"/></svg>