<svg id="Layer_1" data-name="Layer 1" xmlns="http://www.w3.org/2000/svg" viewBox="0 0 1200 1200"><defs><style>.cls-1{fill:#cffafe;}.cls-2{fill:#164e63;}</style></defs><path class="cls-1" d="M830.19,620.23c0,17.82-1.73,46.85-3.86,64.54l-2,16.67c-2.12,17.68-3.86,46.71-3.86,64.53V1072.5a32.47,32.47,0,0,1-32.38,32.38H382.25a32.47,32.47,0,0,1-32.38-32.38V319.11a32.47,32.47,0,0,1,32.38-32.38H797.81a32.47,32.47,0,0,1,32.38,32.38Z"/><path class="cls-1" d="M827,448.58V581.43a106.76,106.76,0,0,0,0-132.85Z"/><path class="cls-1" d="M401.67,834.51A9.71,9.71,0,1,1,392,824.8,9.71,9.71,0,0,1,401.67,834.51Z"/><path class="cls-1" d="M440.53,834.51a9.72,9.72,0,1,1-9.71-9.71A9.71,9.71,0,0,1,440.53,834.51Z"/><path class="cls-1" d="M479.39,834.51a9.72,9.72,0,1,1-9.72-9.71A9.72,9.72,0,0,1,479.39,834.51Z"/><path class="cls-1" d="M518.24,834.51a9.71,9.71,0,1,1-9.71-9.71A9.71,9.71,0,0,1,518.24,834.51Z"/><circle class="cls-1" cx="547.39" cy="834.51" r="9.71"/><path class="cls-1" d="M596,834.51a9.72,9.72,0,1,1-9.71-9.71A9.71,9.71,0,0,1,596,834.51Z"/><path class="cls-1" d="M634.81,834.51a9.71,9.71,0,1,1-9.71-9.71A9.71,9.71,0,0,1,634.81,834.51Z"/><circle class="cls-1" cx="663.96" cy="834.51" r="9.71"/><circle class="cls-1" cx="702.82" cy="834.51" r="9.72"/><path class="cls-1" d="M751.39,834.51a9.72,9.72,0,1,1-9.72-9.71A9.72,9.72,0,0,1,751.39,834.51Z"/><path class="cls-1" d="M790.24,834.51a9.71,9.71,0,1,1-9.71-9.71A9.71,9.71,0,0,1,790.24,834.51Z"/><path class="cls-1" d="M401.67,873.38a9.71,9.71,0,1,1-9.71-9.71A9.71,9.71,0,0,1,401.67,873.38Z"/><path class="cls-1" d="M440.53,873.38a9.72,9.72,0,1,1-9.71-9.71A9.71,9.71,0,0,1,440.53,873.38Z"/><path class="cls-1" d="M479.39,873.38a9.72,9.72,0,1,1-9.72-9.71A9.72,9.72,0,0,1,479.39,873.38Z"/><path class="cls-1" d="M518.24,873.38a9.71,9.71,0,1,1-9.71-9.71A9.71,9.71,0,0,1,518.24,873.38Z"/><circle class="cls-1" cx="547.39" cy="873.38" r="9.71"/><path class="cls-1" d="M596,873.38a9.72,9.72,0,1,1-9.71-9.71A9.71,9.71,0,0,1,596,873.38Z"/><path class="cls-1" d="M634.81,873.38a9.71,9.71,0,1,1-9.71-9.71A9.71,9.71,0,0,1,634.81,873.38Z"/><circle class="cls-1" cx="663.96" cy="873.38" r="9.71"/><circle class="cls-1" cx="702.82" cy="873.38" r="9.72"/><path class="cls-1" d="M751.39,873.38a9.72,9.72,0,1,1-9.72-9.71A9.72,9.72,0,0,1,751.39,873.38Z"/><path class="cls-1" d="M790.24,873.38a9.71,9.71,0,1,1-9.71-9.71A9.71,9.71,0,0,1,790.24,873.38Z"/><path class="cls-1" d="M401.67,912.23a9.71,9.71,0,1,1-9.71-9.71A9.72,9.72,0,0,1,401.67,912.23Z"/><path class="cls-1" d="M440.53,912.23a9.72,9.72,0,1,1-9.71-9.71A9.72,9.72,0,0,1,440.53,912.23Z"/><path class="cls-1" d="M479.39,912.23a9.72,9.72,0,1,1-9.72-9.71A9.72,9.72,0,0,1,479.39,912.23Z"/><path class="cls-1" d="M518.24,912.23a9.71,9.71,0,1,1-9.71-9.71A9.72,9.72,0,0,1,518.24,912.23Z"/><circle class="cls-1" cx="547.39" cy="912.23" r="9.71"/><path class="cls-1" d="M596,912.23a9.72,9.72,0,1,1-9.71-9.71A9.72,9.72,0,0,1,596,912.23Z"/><path class="cls-1" d="M634.81,912.23a9.71,9.71,0,1,1-9.71-9.71A9.71,9.71,0,0,1,634.81,912.23Z"/><circle class="cls-1" cx="663.96" cy="912.23" r="9.71"/><circle class="cls-1" cx="702.82" cy="912.23" r="9.72"/><path class="cls-1" d="M751.39,912.23a9.72,9.72,0,1,1-9.72-9.71A9.72,9.72,0,0,1,751.39,912.23Z"/><path class="cls-1" d="M790.24,912.23a9.71,9.71,0,1,1-9.71-9.71A9.72,9.72,0,0,1,790.24,912.23Z"/><path class="cls-1" d="M401.67,951.08a9.71,9.71,0,1,1-9.71-9.71A9.71,9.71,0,0,1,401.67,951.08Z"/><path class="cls-1" d="M440.53,951.08a9.72,9.72,0,1,1-9.71-9.71A9.71,9.71,0,0,1,440.53,951.08Z"/><path class="cls-1" d="M479.39,951.08a9.72,9.72,0,1,1-9.72-9.71A9.72,9.72,0,0,1,479.39,951.08Z"/><path class="cls-1" d="M518.24,951.08a9.71,9.71,0,1,1-9.71-9.71A9.71,9.71,0,0,1,518.24,951.08Z"/><path class="cls-1" d="M557.1,951.08a9.71,9.71,0,1,1-9.71-9.71A9.71,9.71,0,0,1,557.1,951.08Z"/><path class="cls-1" d="M596,951.08a9.72,9.72,0,1,1-9.71-9.71A9.71,9.71,0,0,1,596,951.08Z"/><path class="cls-1" d="M634.81,951.08a9.71,9.71,0,1,1-9.71-9.71A9.71,9.71,0,0,1,634.81,951.08Z"/><path class="cls-1" d="M673.67,951.08a9.71,9.71,0,1,1-9.71-9.71A9.71,9.71,0,0,1,673.67,951.08Z"/><path class="cls-1" d="M712.54,951.08a9.73,9.73,0,1,1-9.72-9.72A9.72,9.72,0,0,1,712.54,951.08Z"/><path class="cls-1" d="M751.39,951.08a9.72,9.72,0,1,1-9.72-9.71A9.72,9.72,0,0,1,751.39,951.08Z"/><path class="cls-1" d="M790.24,951.08a9.71,9.71,0,1,1-9.71-9.71A9.71,9.71,0,0,1,790.24,951.08Z"/><path class="cls-1" d="M401.67,990a9.71,9.71,0,1,1-9.71-9.71A9.71,9.71,0,0,1,401.67,990Z"/><path class="cls-1" d="M440.53,990a9.72,9.72,0,1,1-9.71-9.71A9.71,9.71,0,0,1,440.53,990Z"/><path class="cls-1" d="M479.39,990a9.72,9.72,0,1,1-9.72-9.71A9.72,9.72,0,0,1,479.39,990Z"/><path class="cls-1" d="M518.24,990a9.71,9.71,0,1,1-9.71-9.71A9.71,9.71,0,0,1,518.24,990Z"/><circle class="cls-1" cx="547.39" cy="989.95" r="9.71"/><path class="cls-1" d="M596,990a9.72,9.72,0,1,1-9.71-9.71A9.71,9.71,0,0,1,596,990Z"/><path class="cls-1" d="M634.81,990a9.71,9.71,0,1,1-9.71-9.71A9.71,9.71,0,0,1,634.81,990Z"/><circle class="cls-1" cx="663.96" cy="989.95" r="9.71"/><circle class="cls-1" cx="702.82" cy="989.95" r="9.72"/><path class="cls-1" d="M751.39,990a9.72,9.72,0,1,1-9.72-9.71A9.72,9.72,0,0,1,751.39,990Z"/><path class="cls-1" d="M790.24,990a9.71,9.71,0,1,1-9.71-9.71A9.71,9.71,0,0,1,790.24,990Z"/><path class="cls-1" d="M401.67,1028.81a9.71,9.71,0,1,1-9.71-9.72A9.71,9.71,0,0,1,401.67,1028.81Z"/><path class="cls-1" d="M440.53,1028.81a9.72,9.72,0,1,1-9.71-9.72A9.71,9.71,0,0,1,440.53,1028.81Z"/><path class="cls-1" d="M479.39,1028.81a9.72,9.72,0,1,1-9.72-9.72A9.72,9.72,0,0,1,479.39,1028.81Z"/><path class="cls-1" d="M518.24,1028.81a9.71,9.71,0,1,1-9.71-9.72A9.71,9.71,0,0,1,518.24,1028.81Z"/><path class="cls-1" d="M557.1,1028.81a9.71,9.71,0,1,1-9.71-9.72A9.71,9.71,0,0,1,557.1,1028.81Z"/><path class="cls-1" d="M596,1028.81a9.72,9.72,0,1,1-9.71-9.72A9.71,9.71,0,0,1,596,1028.81Z"/><path class="cls-1" d="M634.81,1028.81a9.71,9.71,0,1,1-9.71-9.72A9.71,9.71,0,0,1,634.81,1028.81Z"/><path class="cls-1" d="M673.67,1028.81a9.71,9.71,0,1,1-9.71-9.72A9.71,9.71,0,0,1,673.67,1028.81Z"/><path class="cls-1" d="M712.54,1028.81a9.73,9.73,0,1,1-9.72-9.73A9.72,9.72,0,0,1,712.54,1028.81Z"/><path class="cls-1" d="M751.39,1028.81a9.72,9.72,0,1,1-9.72-9.72A9.72,9.72,0,0,1,751.39,1028.81Z"/><path class="cls-1" d="M790.24,1028.81a9.71,9.71,0,1,1-9.71-9.72A9.71,9.71,0,0,1,790.24,1028.81Z"/><path class="cls-1" d="M401.67,1067.65a9.71,9.71,0,1,1-9.71-9.71A9.71,9.71,0,0,1,401.67,1067.65Z"/><path class="cls-1" d="M440.53,1067.65a9.72,9.72,0,1,1-9.71-9.71A9.71,9.71,0,0,1,440.53,1067.65Z"/><path class="cls-1" d="M479.39,1067.65a9.72,9.72,0,1,1-9.72-9.71A9.71,9.71,0,0,1,479.39,1067.65Z"/><path class="cls-1" d="M518.24,1067.65a9.71,9.71,0,1,1-9.71-9.71A9.71,9.71,0,0,1,518.24,1067.65Z"/><circle class="cls-1" cx="547.39" cy="1067.65" r="9.71"/><path class="cls-1" d="M596,1067.65a9.72,9.72,0,1,1-9.71-9.71A9.71,9.71,0,0,1,596,1067.65Z"/><path class="cls-1" d="M634.81,1067.65a9.71,9.71,0,1,1-9.71-9.71A9.7,9.7,0,0,1,634.81,1067.65Z"/><circle class="cls-1" cx="663.96" cy="1067.65" r="9.71"/><circle class="cls-1" cx="702.82" cy="1067.65" r="9.72"/><path class="cls-1" d="M751.39,1067.65a9.72,9.72,0,1,1-9.72-9.71A9.71,9.71,0,0,1,751.39,1067.65Z"/><path class="cls-1" d="M790.24,1067.65a9.71,9.71,0,1,1-9.71-9.71A9.71,9.71,0,0,1,790.24,1067.65Z"/><path class="cls-1" d="M401.67,795.66A9.71,9.71,0,1,1,392,786,9.71,9.71,0,0,1,401.67,795.66Z"/><path class="cls-1" d="M440.53,795.66a9.72,9.72,0,1,1-9.71-9.71A9.71,9.71,0,0,1,440.53,795.66Z"/><path class="cls-1" d="M479.39,795.66a9.72,9.72,0,1,1-9.72-9.71A9.71,9.71,0,0,1,479.39,795.66Z"/><path class="cls-1" d="M518.24,795.66a9.71,9.71,0,1,1-9.71-9.71A9.71,9.71,0,0,1,518.24,795.66Z"/><path class="cls-1" d="M557.1,795.66a9.71,9.71,0,1,1-9.71-9.71A9.71,9.71,0,0,1,557.1,795.66Z"/><path class="cls-1" d="M596,795.66a9.72,9.72,0,1,1-9.71-9.71A9.71,9.71,0,0,1,596,795.66Z"/><path class="cls-1" d="M634.81,795.66A9.71,9.71,0,1,1,625.1,786,9.7,9.7,0,0,1,634.81,795.66Z"/><path class="cls-1" d="M673.67,795.66A9.71,9.71,0,1,1,664,786,9.71,9.71,0,0,1,673.67,795.66Z"/><circle class="cls-1" cx="702.82" cy="795.66" r="9.72"/><path class="cls-1" d="M751.39,795.66a9.72,9.72,0,1,1-9.72-9.71A9.71,9.71,0,0,1,751.39,795.66Z"/><path class="cls-1" d="M790.24,795.66a9.71,9.71,0,1,1-9.71-9.71A9.71,9.71,0,0,1,790.24,795.66Z"/><path class="cls-1" d="M401.67,756.81a9.71,9.71,0,1,1-9.71-9.72A9.71,9.71,0,0,1,401.67,756.81Z"/><path class="cls-1" d="M440.53,756.81a9.72,9.72,0,1,1-9.71-9.72A9.71,9.71,0,0,1,440.53,756.81Z"/><path class="cls-1" d="M479.39,756.81a9.72,9.72,0,1,1-9.72-9.72A9.72,9.72,0,0,1,479.39,756.81Z"/><path class="cls-1" d="M518.24,756.81a9.71,9.71,0,1,1-9.71-9.72A9.71,9.71,0,0,1,518.24,756.81Z"/><path class="cls-1" d="M557.1,756.81a9.71,9.71,0,1,1-9.71-9.72A9.71,9.71,0,0,1,557.1,756.81Z"/><path class="cls-1" d="M596,756.81a9.72,9.72,0,1,1-9.71-9.72A9.71,9.71,0,0,1,596,756.81Z"/><path class="cls-1" d="M634.81,756.81a9.71,9.71,0,1,1-9.71-9.72A9.71,9.71,0,0,1,634.81,756.81Z"/><path class="cls-1" d="M673.67,756.81a9.71,9.71,0,1,1-9.71-9.72A9.71,9.71,0,0,1,673.67,756.81Z"/><path class="cls-1" d="M712.54,756.81a9.73,9.73,0,1,1-9.72-9.73A9.72,9.72,0,0,1,712.54,756.81Z"/><path class="cls-1" d="M751.39,756.81a9.72,9.72,0,1,1-9.72-9.72A9.72,9.72,0,0,1,751.39,756.81Z"/><path class="cls-1" d="M790.24,756.81a9.71,9.71,0,1,1-9.71-9.72A9.71,9.71,0,0,1,790.24,756.81Z"/><path class="cls-1" d="M776.37,377.39H493.86a73,73,0,0,0-72.76,72.75V615.06a73,73,0,0,0,72.76,72.74H776.38a18.24,18.24,0,0,0,18.2-18.19v-274A18.26,18.26,0,0,0,776.37,377.39Z"/><path class="cls-1" d="M747.88,463.59a8.93,8.93,0,0,1-8.93,8.93H492.64a8.93,8.93,0,0,1-8.93-8.93v-1.11a8.93,8.93,0,0,1,8.93-8.94H739a8.93,8.93,0,0,1,8.93,8.94Z"/><path class="cls-1" d="M496.89,491.53a6.59,6.59,0,1,1-6.59-6.59A6.59,6.59,0,0,1,496.89,491.53Z"/><circle class="cls-1" cx="515.4" cy="491.53" r="4.01"/><circle class="cls-1" cx="540.5" cy="491.53" r="4.01"/><circle class="cls-1" cx="565.6" cy="491.53" r="4.01"/><path class="cls-1" d="M594.72,491.53a4,4,0,1,1-4-4A4,4,0,0,1,594.72,491.53Z"/><circle class="cls-1" cx="640.9" cy="491.53" r="4.01"/><circle class="cls-1" cx="666" cy="491.53" r="4.01"/><circle class="cls-1" cx="691.09" cy="491.53" r="4.01"/><circle class="cls-1" cx="716.19" cy="491.53" r="4.01"/><path class="cls-1" d="M622.39,491.53a6.59,6.59,0,1,1-6.59-6.59A6.59,6.59,0,0,1,622.39,491.53Z"/><path class="cls-1" d="M747.87,491.53a6.59,6.59,0,1,1-6.59-6.59A6.59,6.59,0,0,1,747.87,491.53Z"/><rect class="cls-1" x="535.05" y="444.69" width="10.92" height="32.74"/><polygon class="cls-1" points="430.39 123.9 430.39 95.12 389.11 95.12 389.11 123.9 401.25 123.9 401.25 165.78 397.4 165.78 397.4 175.25 393.02 175.25 393.02 184.72 389.11 184.72 389.11 289.96 430.39 289.96 430.39 184.72 426.48 184.72 426.48 175.25 422.1 175.25 422.1 165.78 418.05 165.78 418.05 123.9 430.39 123.9"/><path class="cls-2" d="M820.62,779.64H750.1l-48,194.61a15.06,15.06,0,0,1-14.66,11.35l-.84,0a15,15,0,0,1-14.15-12.91L624,604.62,571,850.28a15.16,15.16,0,0,1-29.13,1.47L489,690.46l-37.59,82.37a15.13,15.13,0,0,1-13.79,8.76l-87.73.09c0-6.33,0-7-.06-15.16,0-8,0-6.27,0-13.94l78-.61,49.69-108.91a15.35,15.35,0,0,1,14.61-8.74,15,15,0,0,1,13.54,10.27l47.53,145,59.59-276.37a14.82,14.82,0,0,1,15.38-11.74,15,15,0,0,1,14.36,12.91l49.36,375,31.58-128.09A15,15,0,0,1,738.19,750h82.43"/></svg>
